<?xml version="1.0" standalone="no"?><!DOCTYPE svg PUBLIC "-//W3C//DTD SVG 1.1//EN" "http://www.w3.org/Graphics/SVG/1.1/DTD/svg11.dtd"><svg t="1583045903724" class="icon" viewBox="0 0 1024 1024" version="1.1" xmlns="http://www.w3.org/2000/svg" p-id="4743" xmlns:xlink="http://www.w3.org/1999/xlink" width="200" height="200"><defs><style type="text/css"></style></defs><path d="M526.933333 966.4C275.2 966.4 72.533333 761.6 72.533333 512 72.533333 262.4 277.333333 57.6 526.933333 57.6S981.333333 262.4 981.333333 512c0 249.6-204.8 454.4-454.4 454.4z m0-844.8C311.466667 121.6 136.533333 296.533333 136.533333 512c0 215.466667 174.933333 390.4 390.4 390.4 213.333333 0 390.4-174.933333 390.4-390.4 0-215.466667-177.066667-390.4-390.4-390.4z" fill="#543E3E" p-id="4744"></path><path d="M686.933333 544h-123.733333c-38.4 0-70.4-32-70.4-70.4v-147.2c0-17.066667 14.933333-32 32-32s32 14.933333 32 32v147.2c0 4.266667 2.133333 6.4 6.4 6.4h123.733333c17.066667 0 32 14.933333 32 32s-12.8 32-32 32z" fill="#FFBB12" p-id="4745"></path></svg>