<?xml version="1.0" standalone="no"?><!DOCTYPE svg PUBLIC "-//W3C//DTD SVG 1.1//EN" "http://www.w3.org/Graphics/SVG/1.1/DTD/svg11.dtd"><svg t="1566397794045" class="icon" viewBox="0 0 1024 1024" version="1.1" xmlns="http://www.w3.org/2000/svg" p-id="2232" xmlns:xlink="http://www.w3.org/1999/xlink" width="200" height="200"><defs><style type="text/css"></style></defs><path d="M905.646 173.675H661.161c-46.343 0-89.89 17.163-122.702 48.321-11.138 10.641-19.87 22.785-27.528 35.468-7.623-12.684-16.3-24.827-27.539-35.468-32.785-31.158-76.355-48.321-122.655-48.321H116.305c-12.906 0-23.357 9.908-23.357 22.188V810.33c0 12.33 10.452 22.293 23.357 22.293h219.969c9.182 0 18.513 0.733 27.86 2.393a161.354 161.354 0 0 1 26.95 7.394l111.369 41.186c0.245 0.16 0.505 0.056 0.665 0.16 2.56 0.837 5.18 1.341 7.813 1.341 2.724 0 5.29-0.504 7.818-1.341 0.153-0.104 0.432-0.104 0.6-0.16l107.053-39.547c10.196-3.748 20.743-6.663 31.521-8.565 10.597-1.918 21.647-2.86 32.632-2.86h215.087c12.93 0 23.363-9.96 23.363-22.293V195.863c0-12.28-10.432-22.188-23.359-22.188zM372.625 791.382c-11.984-2.128-24.227-3.174-36.352-3.174H139.594V218.02h221.142c33.836 0 65.762 12.628 89.711 35.463 23.972 22.768 37.21 53.138 37.21 85.428v491.563l-79.764-29.483c-11.646-4.27-23.517-7.499-35.268-9.61z m509.727-3.174H690.554c-13.957 0-27.888 1.186-41.213 3.56-13.513 2.511-27.015 6.158-39.835 10.92l-75.214 27.787V338.912c0-32.29 13.188-62.66 37.139-85.428 23.962-22.835 55.893-35.463 89.73-35.463h221.19v570.187z m0 0" p-id="2233"></path></svg>